<?xml version="1.0" encoding="iso-8859-1"?>
<!-- Uploaded to: SVG Repo, www.svgrepo.com, Generator: SVG Repo Mixer Tools -->
<svg height="800px" width="800px" version="1.1" id="Layer_1" xmlns="http://www.w3.org/2000/svg" xmlns:xlink="http://www.w3.org/1999/xlink" 
	 viewBox="0 0 511.985 511.985" xml:space="preserve">
<path style="fill:#48CFAD;" d="M511.984,501.328c0,5.891-4.781,10.656-10.671,10.656H10.671C4.78,511.984,0,507.219,0,501.328
	V10.671C0,4.78,4.78,0,10.671,0h490.643c5.89,0,10.671,4.78,10.671,10.671L511.984,501.328L511.984,501.328z"/>
<polygon style="fill:#FFCE54;" points="383.988,106.668 127.996,106.668 127.996,341.333 213.321,341.333 255.992,383.988 
	298.663,341.333 383.988,341.333 "/>
<path style="fill:#DA4453;" d="M368.427,231.087c19.482,0,35.264-15.766,35.264-35.202c0-1.875-0.141-3.719-0.438-5.5h0.016
	l-0.203-1.125c-0.031-0.156-0.062-0.328-0.094-0.5l-20.437-50.093H331.77l8.453,78.342l1.188,1.484
	C347.88,226.196,357.583,231.087,368.427,231.087z"/>
<path style="fill:#E6E9ED;" d="M280.991,138.667l2.828,78.342c6.422,8.547,16.672,14.078,28.202,14.078s21.78-5.531,28.202-14.078
	l-8.453-78.342L280.991,138.667L280.991,138.667z"/>
<path style="fill:#DA4453;" d="M143.448,231.087c-19.468,0-35.265-15.766-35.265-35.202c0-1.875,0.156-3.719,0.438-5.5l0,0
	l0.203-1.125c0.031-0.156,0.047-0.328,0.078-0.5l20.438-50.093h50.779l-8.469,78.342l-1.188,1.484
	C163.995,226.196,154.292,231.087,143.448,231.087z"/>
<path style="fill:#E6E9ED;" d="M230.884,138.667l-2.812,78.342c-6.438,8.547-16.672,14.078-28.218,14.078
	c-11.531,0-21.766-5.531-28.203-14.078l8.469-78.342L230.884,138.667L230.884,138.667z"/>
<path style="fill:#DA4453;" d="M230.227,138.667l-2.828,78.342c6.438,8.547,16.671,14.078,28.218,14.078
	c11.53,0,21.765-5.531,28.202-14.078l-2.828-78.342L230.227,138.667L230.227,138.667z"/>
<path style="fill:#ED5564;" d="M108.871,188.931c-0.016,0.125-0.031,0.219-0.047,0.328l-0.203,1.125l0,0
	c-0.281,1.781-0.438,3.625-0.438,5.5c0,19.437,15.797,35.202,35.265,35.202c10.844,0,20.547-4.891,27.015-12.594l1.188-1.484
	l3.031-28.077L108.871,188.931L108.871,188.931z"/>
<path style="fill:#F5F7FA;" d="M174.681,188.931l-3.031,28.077c6.438,8.547,16.672,14.078,28.203,14.078
	c11.546,0,21.78-5.531,28.218-14.078l1-28.077H174.681z"/>
<path style="fill:#ED5564;" d="M228.415,188.931l-1.016,28.077c6.438,8.547,16.671,14.078,28.218,14.078
	c11.53,0,21.765-5.531,28.202-14.078l-1.016-28.077H228.415z"/>
<path style="fill:#F5F7FA;" d="M282.804,188.931l1.016,28.077c6.422,8.547,16.672,14.078,28.202,14.078s21.78-5.531,28.202-14.078
	l-3.031-28.077H282.804z"/>
<path style="fill:#ED5564;" d="M403.268,190.385l-0.203-1.125c-0.031-0.109-0.047-0.203-0.062-0.328h-65.811l3.031,28.077
	l1.188,1.484c6.469,7.703,16.172,12.594,27.016,12.594c19.482,0,35.264-15.766,35.264-35.202c0-1.875-0.141-3.719-0.438-5.5
	L403.268,190.385L403.268,190.385z"/>
<polygon style="fill:#434A54;" points="108.09,511.984 370.832,511.984 511.984,448.908 511.984,330.521 "/>
<g>
	<polygon style="fill:#E6E9ED;" points="381.566,0 404.581,51.482 448.674,150.167 511.984,121.871 511.984,10.671 501.313,0 	"/>
	<path style="fill:#E6E9ED;" d="M10.671,0C4.78,0,0,4.78,0,10.671v61.248L161.464,0H10.671z"/>
</g>
</svg>